# xmcd
#
# Track frame offsets:
#	182
#	20912
#	49955
#	67845
#	86922
#	105810
#	126652
#	144260
#	163277
#	182122
#	204802
#	222527
#	228610
#
# Disc length: 3321 seconds
#
# Revision: 0
# Processed by: cddbd v1.4PL0 Copyright (c) Steve Scherf et al.
# Submitted via: audiograbber 1.81.01
#
DISCID=c10cf70d
DTITLE=Fast Johnny Ricker - Power and Light
DYEAR=2001
DGENRE=Blues
TTITLE0=No Riders
TTITLE1=The Drop On Me
TTITLE2=Trouble's Hound
TTITLE3=Full Blown Blue
TTITLE4=How High?
TTITLE5=Love Is Down
TTITLE6=Baby Got A Guitar
TTITLE7=Gypsy
TTITLE8=Devil By The Tail
TTITLE9=I Do Not Have The Blues
TTITLE10=Not But A Shadow
TTITLE11=Introduction
TTITLE12=Ramblin' Man
EXTD=
EXTT0=
EXTT1=
EXTT2=
EXTT3=
EXTT4=
EXTT5=
EXTT6=
EXTT7=
EXTT8=
EXTT9=
EXTT10=
EXTT11=
EXTT12=
PLAYORDER=
